<svg xmlns="http://www.w3.org/2000/svg" viewBox="0 0 39 38.9"><defs><style>.cls-1{fill:#fff;}</style></defs><title>积分商城</title><g id="图层_2" data-name="图层 2"><g id="图层_310_矩形_26_图层_311_banner_经典成功案例_产品_解决方案_轮播_企业联盟_导航栏_多场景解决方案_导航文字_图像" data-name="图层 310 + 矩形 26 + 图层 311 + banner + 经典成功案例 + 产品&amp;解决方案 + 轮播 + 企业联盟 + 导航栏 + 多场景解决方案 + 导航文字 图像"><path class="cls-1" d="M38.68,12.26v-.1a.94.94,0,0,0,0-.16L35,2.66h0A3.63,3.63,0,0,0,31.66,0H7.27A3.45,3.45,0,0,0,4,2.57H4L.37,12.07l0,.14v0A7.82,7.82,0,0,0,0,14.51a7.41,7.41,0,0,0,3.4,6.36l.24.14a6.1,6.1,0,0,0,2.91.68,9.32,9.32,0,0,0,6.2-3l.25-.32.25.32a9.29,9.29,0,0,0,6.29,2.85,8.37,8.37,0,0,0,6.15-2.86l.24-.32.25.32a9.43,9.43,0,0,0,6.28,3,6,6,0,0,0,3.13-.82A7.38,7.38,0,0,0,39,14.48a7.59,7.59,0,0,0-.32-2.22Zm-3.81,5.9a4.3,4.3,0,0,1-2.24.57c-1.64,0-4.41-1.3-5.27-2.84v0a2,2,0,0,0-.28-.5,1.22,1.22,0,0,0-1-.53,1.24,1.24,0,0,0-1,.54h0a2.15,2.15,0,0,0-.28.49v0a7.24,7.24,0,0,1-5.15,2.94,7.51,7.51,0,0,1-5.29-3h0v0a2.51,2.51,0,0,0-.32-.48h0a1.17,1.17,0,0,0-.92-.54,1.13,1.13,0,0,0-.88.48h0a2.66,2.66,0,0,0-.33.57v0A6.55,6.55,0,0,1,7,18.66a4.3,4.3,0,0,1-2.14-.5l-.07-.05A4.23,4.23,0,0,1,2.6,14a6,6,0,0,1,.28-1.79v0L6.23,3.67C6.45,3,6.69,2.6,7.47,2.6H31.69c.35,0,.84.08,1.17,1.12l3.57,8.63v0l0,.13a5.42,5.42,0,0,1,.26,1.69c0,1.9-.34,3-1.85,4ZM31.93,38.9h-24A2.69,2.69,0,0,1,5.21,36V25.18c0-1,.42-1.75,1.24-1.75s1.28.78,1.28,1.75V36H32V25.18c0-1,.47-1.75,1.28-1.75s1.36.78,1.36,1.75V36a2.7,2.7,0,0,1-2.68,2.88Z"/><path class="cls-1" d="M29.38,10.71H9A1.35,1.35,0,0,1,7.81,9.26,1.35,1.35,0,0,1,9,7.81H29.38a1.35,1.35,0,0,1,1.21,1.45A1.35,1.35,0,0,1,29.38,10.71Z"/></g></g></svg>