<svg xmlns="http://www.w3.org/2000/svg" viewBox="0 0 40.61 40"><defs><style>.cls-1{fill:#fff;}</style></defs><title>供应链</title><g id="图层_2" data-name="图层 2"><g id="图层_310_矩形_26_图层_311_banner_经典成功案例_产品_解决方案_轮播_企业联盟_导航栏_多场景解决方案_导航文字_图像" data-name="图层 310 + 矩形 26 + 图层 311 + banner + 经典成功案例 + 产品&amp;解决方案 + 轮播 + 企业联盟 + 导航栏 + 多场景解决方案 + 导航文字 图像"><path class="cls-1" d="M20.32,38.52A18.49,18.49,0,0,1,2.15,23.47l2.93-.55A15.56,15.56,0,0,0,20.32,35.6Zm3.94-.42-.62-2.93A15.65,15.65,0,0,0,35.89,20h2.92A18.58,18.58,0,0,1,24.26,38.1ZM4.75,20H1.83A18.47,18.47,0,0,1,16.94,1.84l.53,2.93A15.55,15.55,0,0,0,4.75,20ZM35.6,17.1A15.58,15.58,0,0,0,21.45,4.56H20.32l.6-2.63c.45,0,.31-.28.75-.25A18.49,18.49,0,0,1,38.48,16.49Z"/><path class="cls-1" d="M22.31,6.74a1.09,1.09,0,0,1-.85-.41L18.8,3.06,22,.28a1.11,1.11,0,1,1,1.47,1.66h0l-1.6,1.38,1.32,1.61A1.1,1.1,0,0,1,23,6.47a1,1,0,0,1-.68.24Z"/><path class="cls-1" d="M3.28,21.83.35,18.9a1.1,1.1,0,1,1,1.5-1.6l0,.05,1.46,1.46,1.47-1.46a1.1,1.1,0,0,1,1.46,1.59ZM18.39,40a1.09,1.09,0,0,1-1.1-1.09,1.07,1.07,0,0,1,.4-.86l1.61-1.34L18,35.07a1.1,1.1,0,1,1,1.73-1.36L22.34,37l-3.25,2.75A1.1,1.1,0,0,1,18.39,40Zm21-17.1a1.13,1.13,0,0,1-.76-.31l-1.46-1.47-1.47,1.47a1.1,1.1,0,1,1-1.77-1.29,1,1,0,0,1,.31-.29l3-2.93,3,2.93a1.1,1.1,0,0,1,0,1.55,1.14,1.14,0,0,1-.79.34Z"/><path class="cls-1" d="M19.27,27a7.64,7.64,0,0,1-2.93-.74A4.74,4.74,0,0,1,15,24.94,5.42,5.42,0,0,1,14.28,23c-.13-.69-.16-1-.1-1h2.48c.32,1.42.72,2.26,1.17,2.52a4.46,4.46,0,0,0,2.46.47c.75-.09,2.05-.47,2.4-1.11a1.81,1.81,0,0,0-.56-2.49L22,21.27a23.71,23.71,0,0,0-4.39-1.73,6.33,6.33,0,0,1-2.47-1.46,4.12,4.12,0,0,1-.76-2.32,3.36,3.36,0,0,1,1.77-3.31,6.27,6.27,0,0,1,3.17-1v-1a.64.64,0,0,1,.64-.64.64.64,0,0,1,.63.64v1.07A4.69,4.69,0,0,1,24,12.81a3.94,3.94,0,0,1,1.36,3.11H22.91A3.61,3.61,0,0,0,21.67,14a3.31,3.31,0,0,0-2.93-.38A2,2,0,0,0,17,15.74c.18.78.29,1.24,2.44,2.08s3.68,1,5.09,2.21a3.94,3.94,0,0,1,.27,5.26A5,5,0,0,1,21.37,27a5.29,5.29,0,0,1-.8.09v1.17a.64.64,0,0,1-.64.64.64.64,0,0,1-.63-.64Z"/></g></g></svg>