<svg xmlns="http://www.w3.org/2000/svg" viewBox="0 0 38 38"><defs><style>.cls-1{fill:#fff;}</style></defs><title>商品防伪追溯</title><g id="图层_2" data-name="图层 2"><g id="图层_310_矩形_26_图层_311_banner_经典成功案例_产品_解决方案_轮播_企业联盟_导航栏_多场景解决方案_导航文字_图像" data-name="图层 310 + 矩形 26 + 图层 311 + banner + 经典成功案例 + 产品&amp;解决方案 + 轮播 + 企业联盟 + 导航栏 + 多场景解决方案 + 导航文字 图像"><path class="cls-1" d="M35.15,27H38V31.1A6.91,6.91,0,0,1,31.1,38H27V35.15H31.1a4.08,4.08,0,0,0,4-4ZM2.85,31.1V27H0V31.1A6.91,6.91,0,0,0,6.9,38H11V35.15H6.9A4,4,0,0,1,2.85,31.1Zm0-24.2A4.08,4.08,0,0,1,6.9,2.85H11V0H6.9A6.91,6.91,0,0,0,0,6.9V11H2.85ZM31.1,0H27V2.85H31.1a4.08,4.08,0,0,1,4,4.05V11H38V6.9A6.91,6.91,0,0,0,31.1,0Z"/><path class="cls-1" d="M8.61,30.4H8c-.63,0-1.14-.7-1.14-1.52V9.69c0-.82.51-1.52,1.14-1.52h.57c.64,0,1.14.7,1.14,1.52V28.88C9.75,29.7,9.25,30.4,8.61,30.4Zm10.64,0h-.57c-.63,0-1.14-.7-1.14-1.52V9.69c0-.82.51-1.52,1.14-1.52h.57c.64,0,1.14.7,1.14,1.52V28.88C20.39,29.7,19.89,30.4,19.25,30.4Zm10.64,0h-.57c-.63,0-1.14-.7-1.14-1.52V9.69c0-.82.51-1.52,1.14-1.52h.57c.64,0,1.14.7,1.14,1.52V28.88C31,29.7,30.53,30.4,29.89,30.4Zm-16,0a.91.91,0,0,1-.82-.95V9.18a.92.92,0,0,1,.82-.95.92.92,0,0,1,.83.95V29.45A.84.84,0,0,1,13.93,30.4Zm11.21,0a.91.91,0,0,1-.82-.95V9.18a.83.83,0,1,1,1.65,0V29.45A.91.91,0,0,1,25.14,30.4Z"/></g></g></svg>