<svg xmlns="http://www.w3.org/2000/svg" viewBox="0 0 42.5 36"><defs><style>.cls-1{fill:#fff;}</style></defs><title>敬请期待</title><g id="图层_2" data-name="图层 2"><g id="图层_310_矩形_26_图层_311_banner_经典成功案例_产品_解决方案_轮播_企业联盟_导航栏_多场景解决方案_导航文字_图像" data-name="图层 310 + 矩形 26 + 图层 311 + banner + 经典成功案例 + 产品&amp;解决方案 + 轮播 + 企业联盟 + 导航栏 + 多场景解决方案 + 导航文字 图像"><path class="cls-1" d="M11.08,6.62H6.26A1.21,1.21,0,0,0,6.26,9H11a1.2,1.2,0,0,0,1.2-1.2A1.11,1.11,0,0,0,11.08,6.62ZM3,14.57a1.2,1.2,0,0,0,1.2,1.2H7.46a1.2,1.2,0,1,0,0-2.4H4.21A1.2,1.2,0,0,0,3,14.57ZM8,20.83a1.21,1.21,0,0,0-1.21-1.2H1.32a1.2,1.2,0,0,0,0,2.4H6.74A1.21,1.21,0,0,0,8,20.83Zm1.8,5.42H4.33a1.21,1.21,0,0,0,0,2.41H9.75A1.22,1.22,0,0,0,11,27.45,1.14,1.14,0,0,0,9.75,26.25ZM1.2,9H2.77a1.21,1.21,0,0,0,0-2.41H1.2A1.2,1.2,0,0,0,0,7.83,1.13,1.13,0,0,0,1.2,9Z"/><path class="cls-1" d="M24.44,36A17.86,17.86,0,0,1,6.5,17.94a18,18,0,1,1,36,.12,18.17,18.17,0,0,1-11,16.62A20.62,20.62,0,0,1,24.44,36Zm0-33.71A15.6,15.6,0,1,0,35.52,6.86,15.62,15.62,0,0,0,24.44,2.29Z"/><path class="cls-1" d="M35.4,18.54H25.76V10.11a1.2,1.2,0,0,0-1.2-1.2h-.24a1.2,1.2,0,0,0-1.2,1.2V20a1.2,1.2,0,0,0,1.2,1.2h11a1.2,1.2,0,0,0,1.2-1.2v-.12a1.09,1.09,0,0,0-1.08-1.33Z"/></g></g></svg>